# Blender 3.3.3
# www.blender.org
mtllib slow.mtl
o Cube
v -0.411958 -0.462186 0.952268
v -0.411958 0.456674 0.952268
v -0.411958 -0.462186 0.155082
v -0.411958 0.456674 0.155082
v 0.411958 -0.462186 0.952268
v 0.411958 0.456674 0.952268
v 0.411958 -0.462186 0.155082
v 0.411958 0.456674 0.155082
v -0.442255 -0.003986 -1.001906
v -0.442255 -0.003986 -0.723942
v 0.442255 -0.003986 -0.723942
v 0.442255 -0.003986 -1.001906
v -0.502233 -0.562864 0.553675
v -0.502233 -0.002756 1.039614
v -0.502233 0.557351 0.553675
v -0.502233 -0.002756 0.067735
v 0.000000 -0.562864 0.067736
v -0.000000 0.557351 0.067736
v 0.502233 -0.002756 0.067736
v 0.502233 -0.562864 0.553675
v 0.502233 0.557351 0.553675
v 0.502233 -0.002756 1.039614
v -0.000000 -0.562864 1.039614
v -0.000000 0.557351 1.039614
v -0.423315 -0.610228 -0.722578
v -0.423315 0.602256 -0.526167
v 0.423315 0.602256 -0.526167
v 0.423315 0.602256 -0.722578
v -0.423315 0.602256 -0.722578
v -0.423315 -0.610228 -0.526167
v 0.423315 -0.610228 -0.526167
v 0.423315 -0.610228 -0.722578
v 0.000000 -0.003986 -1.054025
v 0.608100 -0.003986 -0.862924
v -0.608100 -0.003986 -0.862924
v -0.691683 -0.002756 0.553675
v 0.000000 -0.002756 -0.115568
v 0.691683 -0.002756 0.553675
v -0.000000 -0.002756 1.222918
v -0.000000 -0.774145 0.553675
v -0.000000 0.768632 0.553675
v -0.582507 -0.617220 -0.581191
v -0.000000 -0.617219 -0.467784
v 0.582507 -0.617220 -0.581191
v 0.000000 -0.617220 -0.764249
v 0.000000 0.609247 -0.764249
v 0.582507 0.609247 -0.581191
v -0.000000 0.609247 -0.467783
v -0.582507 0.609247 -0.581191
v -0.432785 0.299135 -0.640990
v 0.432785 0.299135 -0.640990
v 0.432785 0.299135 -0.913002
v -0.432785 0.299135 -0.913002
v 0.000000 0.302631 -0.959897
v 0.595303 0.302631 -0.772818
v -0.000000 0.302630 -0.585739
v -0.595303 0.302631 -0.772818
v -0.432785 -0.307107 -0.913002
v -0.432785 -0.307107 -0.640990
v 0.432785 -0.307107 -0.640990
v 0.432785 -0.307107 -0.913002
v -0.595303 -0.310603 -0.772818
v -0.000000 -0.310603 -0.585739
v 0.595303 -0.310603 -0.772818
v 0.000000 -0.310603 -0.959897
v -0.000000 -0.630463 -0.569700
v -0.000000 0.622490 -0.569700
v 0.000000 -0.003986 -0.677246
v -0.442255 -0.003986 -0.528095
v -0.442255 -0.003986 -0.250131
v 0.442255 -0.003986 -0.250131
v 0.442255 -0.003986 -0.528095
v -0.423315 -0.610228 -0.248767
v -0.423315 0.602256 -0.052356
v 0.423315 0.602256 -0.052356
v 0.423315 0.602256 -0.248767
v -0.423315 0.602256 -0.248767
v -0.423315 -0.610228 -0.052356
v 0.423315 -0.610228 -0.052356
v 0.423315 -0.610228 -0.248767
v 0.000000 -0.003986 -0.580214
v 0.608100 -0.003986 -0.389113
v -0.608100 -0.003986 -0.389113
v -0.582507 -0.617220 -0.107380
v -0.000000 -0.617219 0.006027
v 0.582507 -0.617220 -0.107380
v 0.000000 -0.617220 -0.290438
v 0.000000 0.609247 -0.290438
v 0.582507 0.609247 -0.107380
v -0.000000 0.609247 0.006028
v -0.582507 0.609247 -0.107380
v -0.432785 0.299135 -0.167179
v 0.432785 0.299135 -0.167179
v 0.432785 0.299135 -0.439192
v -0.432785 0.299135 -0.439192
v 0.000000 0.302631 -0.486086
v 0.595303 0.302631 -0.299007
v -0.000000 0.302630 -0.111928
v -0.595303 0.302631 -0.299007
v -0.432785 -0.307107 -0.439192
v -0.432785 -0.307107 -0.167179
v 0.432785 -0.307107 -0.167179
v 0.432785 -0.307107 -0.439192
v -0.595303 -0.310603 -0.299007
v -0.000000 -0.310603 -0.111928
v 0.595303 -0.310603 -0.299007
v 0.000000 -0.310603 -0.486086
v -0.000000 -0.630463 -0.095889
v -0.000000 0.622490 -0.095889
v 0.000000 -0.003986 -0.203435
vn -0.9069 -0.2761 0.3182
vn -0.9069 0.2761 0.3182
vn -0.9069 0.2761 -0.3182
vn -0.9069 -0.2761 -0.3182
vn -0.3005 -0.2695 -0.9149
vn -0.3005 0.2695 -0.9149
vn 0.3005 0.2695 -0.9149
vn 0.3005 -0.2695 -0.9149
vn 0.9069 -0.2761 -0.3182
vn 0.9069 0.2761 -0.3182
vn 0.9069 0.2761 0.3182
vn 0.9069 -0.2761 0.3182
vn 0.3005 -0.2695 0.9149
vn 0.3005 0.2695 0.9149
vn -0.3005 0.2695 0.9149
vn -0.3005 -0.2695 0.9149
vn -0.3325 -0.8782 -0.3437
vn 0.3325 -0.8782 -0.3437
vn 0.3325 -0.8782 0.3437
vn -0.3325 -0.8782 0.3437
vn 0.3325 0.8782 -0.3437
vn -0.3325 0.8782 -0.3437
vn -0.3325 0.8782 0.3437
vn 0.3325 0.8782 0.3437
vn -0.5807 -0.4474 -0.6802
vn -0.4735 0.3817 0.7938
vn -0.1189 0.3525 0.9282
vn 0.1189 0.3525 0.9282
vn 0.4735 0.3817 0.7938
vn 0.5807 -0.4474 -0.6802
vn 0.0935 -0.5337 -0.8405
vn -0.0935 -0.5337 -0.8405
vn 0.1088 0.2873 -0.9516
vn -0.1088 0.2873 -0.9516
vn 0.6257 -0.1918 0.7562
vn 0.6272 0.2404 -0.7408
vn -0.6272 0.2404 -0.7408
vn -0.6257 -0.1918 0.7562
vn -0.4735 -0.3817 0.7938
vn -0.5807 0.4474 -0.6802
vn 0.1189 -0.3525 0.9282
vn -0.1189 -0.3525 0.9282
vn 0.5807 0.4474 -0.6802
vn 0.4735 -0.3817 0.7938
vn -0.0935 0.5337 -0.8405
vn 0.0935 0.5337 -0.8405
vn -0.1088 -0.2873 -0.9516
vn 0.1088 -0.2873 -0.9516
vn 0.6272 -0.2404 -0.7408
vn 0.6257 0.1918 0.7562
vn -0.6257 0.1918 0.7562
vn -0.6272 -0.2404 -0.7408
vn 0.0309 -0.9869 0.1585
vn 0.0222 -0.9973 -0.0706
vn -0.0309 -0.9869 0.1585
vn -0.0222 -0.9973 -0.0706
vn -0.0222 0.9973 -0.0706
vn -0.0309 0.9869 0.1585
vn 0.0222 0.9973 -0.0706
vn 0.0309 0.9869 0.1585
vn 0.1103 -0.2718 0.9560
vn 0.1103 0.2718 0.9560
vn -0.1103 -0.2718 0.9560
vn -0.1103 0.2718 0.9560
vt 0.375000 0.000000
vt 0.375000 1.000000
vt 0.125000 0.750000
vt 0.625000 0.000000
vt 0.625000 1.000000
vt 0.875000 0.750000
vt 0.375000 0.250000
vt 0.125000 0.500000
vt 0.625000 0.250000
vt 0.875000 0.500000
vt 0.375000 0.750000
vt 0.625000 0.750000
vt 0.375000 0.500000
vt 0.625000 0.500000
vt 0.500000 1.000000
vt 0.500000 0.000000
vt 0.500000 0.250000
vt 0.500000 0.500000
vt 0.500000 0.750000
vt 0.375000 0.125000
vt 0.125000 0.625000
vt 0.500000 0.000000
vt 0.500000 1.000000
vt 0.625000 0.125000
vt 0.875000 0.625000
vt 0.500000 0.250000
vt 0.375000 0.375000
vt 0.250000 0.500000
vt 0.625000 0.375000
vt 0.750000 0.500000
vt 0.500000 0.500000
vt 0.375000 0.625000
vt 0.625000 0.625000
vt 0.500000 0.750000
vt 0.375000 0.875000
vt 0.250000 0.750000
vt 0.625000 0.875000
vt 0.750000 0.750000
vt 0.562500 0.000000
vt 0.562500 1.000000
vt 0.437500 0.250000
vt 0.437066 0.500000
vt 0.437066 0.750000
vt 0.437500 0.000000
vt 0.437500 1.000000
vt 0.562500 0.250000
vt 0.562934 0.500000
vt 0.562934 0.750000
vt 0.500000 0.875000
vt 0.500000 0.625000
vt 0.500000 0.125000
vt 0.500000 0.125000
vt 0.500000 0.375000
vt 0.500000 0.625000
vt 0.500000 0.875000
vt 0.250000 0.625000
vt 0.750000 0.625000
vt 0.562500 0.125000
vt 0.562500 0.375000
vt 0.564236 0.625000
vt 0.562500 0.875000
vt 0.437500 0.875000
vt 0.435764 0.625000
vt 0.437500 0.375000
vt 0.437500 0.125000
vt 0.468750 0.250000
vt 0.468533 0.500000
vt 0.468533 0.750000
vt 0.468750 0.000000
vt 0.468750 1.000000
vt 0.468750 0.875000
vt 0.467882 0.625000
vt 0.468750 0.375000
vt 0.468750 0.125000
vt 0.531250 1.000000
vt 0.531250 0.000000
vt 0.531250 0.250000
vt 0.531467 0.500000
vt 0.531467 0.750000
vt 0.531250 0.125000
vt 0.531250 0.375000
vt 0.532118 0.625000
vt 0.531250 0.875000
vt 0.562934 0.500000
vt 0.437066 0.500000
vt 0.500000 0.375000
vt 0.500000 1.000000
vt 0.500000 0.000000
vt 0.500000 0.250000
vt 0.500000 0.500000
vt 0.500000 0.750000
vt 0.562500 0.000000
vt 0.562500 1.000000
vt 0.437500 0.250000
vt 0.437066 0.500000
vt 0.437066 0.750000
vt 0.437500 0.000000
vt 0.437500 1.000000
vt 0.562500 0.250000
vt 0.562934 0.500000
vt 0.562934 0.750000
vt 0.500000 0.875000
vt 0.500000 0.625000
vt 0.500000 0.125000
vt 0.562500 0.125000
vt 0.562500 0.375000
vt 0.564236 0.625000
vt 0.562500 0.875000
vt 0.437500 0.875000
vt 0.435764 0.625000
vt 0.437500 0.375000
vt 0.437500 0.125000
vt 0.468750 0.250000
vt 0.468533 0.500000
vt 0.468533 0.750000
vt 0.468750 0.000000
vt 0.468750 1.000000
vt 0.468750 0.875000
vt 0.467882 0.625000
vt 0.468750 0.375000
vt 0.468750 0.125000
vt 0.531250 1.000000
vt 0.531250 0.000000
vt 0.531250 0.250000
vt 0.531467 0.500000
vt 0.531467 0.750000
vt 0.531250 0.125000
vt 0.531250 0.375000
vt 0.532118 0.625000
vt 0.531250 0.875000
vt 0.562934 0.500000
vt 0.437066 0.500000
vt 0.500000 0.375000
s 0
f 1/1/1 14/22/1 36/52/1 13/20/1
f 14/22/2 2/4/2 15/24/2 36/52/2
f 36/52/3 15/24/3 4/9/3 16/26/3
f 13/20/4 36/52/4 16/26/4 3/7/4
f 3/7/5 16/26/5 37/53/5 17/27/5
f 16/26/6 4/9/6 18/29/6 37/53/6
f 37/53/7 18/29/7 8/14/7 19/31/7
f 17/27/8 37/53/8 19/31/8 7/13/8
f 7/13/9 19/31/9 38/54/9 20/32/9
f 19/31/10 8/14/10 21/33/10 38/54/10
f 38/54/11 21/33/11 6/12/11 22/34/11
f 20/32/12 38/54/12 22/34/12 5/11/12
f 5/11/13 22/34/13 39/55/13 23/35/13
f 22/34/14 6/12/14 24/37/14 39/55/14
f 39/55/15 24/37/15 2/5/15 14/23/15
f 23/35/16 39/55/16 14/23/16 1/2/16
f 3/8/17 17/28/17 40/56/17 13/21/17
f 17/28/18 7/13/18 20/32/18 40/56/18
f 40/56/19 20/32/19 5/11/19 23/36/19
f 13/21/20 40/56/20 23/36/20 1/3/20
f 8/14/21 18/30/21 41/57/21 21/33/21
f 18/30/22 4/10/22 15/25/22 41/57/22
f 41/57/23 15/25/23 2/6/23 24/38/23
f 21/33/24 41/57/24 24/38/24 6/12/24
f 58/76/25 25/39/25 42/58/25 62/80/25
f 62/80/26 42/58/26 30/46/26 59/77/26
f 59/77/27 30/46/27 43/59/27 63/81/27
f 63/81/28 43/59/28 31/47/28 60/78/28
f 60/78/29 31/47/29 44/60/29 64/82/29
f 64/82/30 44/60/30 32/48/30 61/79/30
f 61/79/31 32/48/31 45/61/31 65/83/31
f 65/83/32 45/61/32 25/40/32 58/75/32
f 52/68/33 12/19/33 33/49/33 54/71/33
f 54/71/34 33/49/34 9/15/34 53/70/34
f 51/67/35 11/18/35 34/50/35 55/72/35
f 55/72/36 34/50/36 12/19/36 52/68/36
f 53/69/37 9/16/37 35/51/37 57/74/37
f 57/74/38 35/51/38 10/17/38 50/66/38
f 49/65/39 57/74/39 50/66/39 26/41/39
f 29/44/40 53/69/40 57/74/40 49/65/40
f 48/64/41 56/73/41 51/67/41 27/42/41
f 26/41/42 50/66/42 56/73/42 48/64/42
f 47/63/43 55/72/43 52/68/43 28/43/43
f 27/42/44 51/67/44 55/72/44 47/63/44
f 46/62/45 54/71/45 53/70/45 29/45/45
f 28/43/46 52/68/46 54/71/46 46/62/46
f 33/49/47 65/83/47 58/75/47 9/15/47
f 12/19/48 61/79/48 65/83/48 33/49/48
f 34/50/49 64/82/49 61/79/49 12/19/49
f 11/18/50 60/78/50 64/82/50 34/50/50
f 35/51/51 62/80/51 59/77/51 10/17/51
f 9/16/52 58/76/52 62/80/52 35/51/52
f 43/59/53 66/84/53 44/60/53 31/47/53
f 66/84/54 45/61/54 32/48/54 44/60/54
f 30/46/55 42/58/55 66/84/55 43/59/55
f 42/58/56 25/40/56 45/61/56 66/84/56
f 29/45/57 49/65/57 67/85/57 46/62/57
f 49/65/58 26/41/58 48/64/58 67/85/58
f 46/62/59 67/85/59 47/63/59 28/43/59
f 67/85/60 48/64/60 27/42/60 47/63/60
f 56/73/61 68/86/61 11/18/61 51/67/61
f 68/86/62 63/81/62 60/78/62 11/18/62
f 50/66/63 10/17/63 68/86/63 56/73/63
f 10/17/64 59/77/64 63/81/64 68/86/64
f 100/123/25 73/92/25 84/105/25 104/127/25
f 104/127/26 84/105/26 78/99/26 101/124/26
f 101/124/27 78/99/27 85/106/27 105/128/27
f 105/128/28 85/106/28 79/100/28 102/125/28
f 102/125/29 79/100/29 86/107/29 106/129/29
f 106/129/30 86/107/30 80/101/30 103/126/30
f 103/126/31 80/101/31 87/108/31 107/130/31
f 107/130/32 87/108/32 73/93/32 100/122/32
f 94/115/33 72/91/33 81/102/33 96/118/33
f 96/118/34 81/102/34 69/87/34 95/117/34
f 93/114/35 71/90/35 82/103/35 97/119/35
f 97/119/36 82/103/36 72/91/36 94/115/36
f 95/116/37 69/88/37 83/104/37 99/121/37
f 99/121/38 83/104/38 70/89/38 92/113/38
f 91/112/39 99/121/39 92/113/39 74/94/39
f 77/97/40 95/116/40 99/121/40 91/112/40
f 90/111/41 98/120/41 93/114/41 75/95/41
f 74/94/42 92/113/42 98/120/42 90/111/42
f 89/110/43 97/119/43 94/115/43 76/96/43
f 75/95/44 93/114/44 97/119/44 89/110/44
f 88/109/45 96/118/45 95/117/45 77/98/45
f 76/96/46 94/115/46 96/118/46 88/109/46
f 81/102/47 107/130/47 100/122/47 69/87/47
f 72/91/48 103/126/48 107/130/48 81/102/48
f 82/103/49 106/129/49 103/126/49 72/91/49
f 71/90/50 102/125/50 106/129/50 82/103/50
f 83/104/51 104/127/51 101/124/51 70/89/51
f 69/88/52 100/123/52 104/127/52 83/104/52
f 85/106/53 108/131/53 86/107/53 79/100/53
f 108/131/54 87/108/54 80/101/54 86/107/54
f 78/99/55 84/105/55 108/131/55 85/106/55
f 84/105/56 73/93/56 87/108/56 108/131/56
f 77/98/57 91/112/57 109/132/57 88/109/57
f 91/112/58 74/94/58 90/111/58 109/132/58
f 88/109/59 109/132/59 89/110/59 76/96/59
f 109/132/60 90/111/60 75/95/60 89/110/60
f 98/120/61 110/133/61 71/90/61 93/114/61
f 110/133/62 105/128/62 102/125/62 71/90/62
f 92/113/63 70/89/63 110/133/63 98/120/63
f 70/89/64 101/124/64 105/128/64 110/133/64
